Walking01.mot
version=1
nRows=30
nColumns=19
inDegrees=yes
endheader
time	ground_force1_vx	ground_force1_vy	ground_force1_vz	ground_force1_px	ground_force1_py	ground_force1_pz	ground_force2_vx	ground_force2_vy	ground_force2_vz	ground_force2_px	ground_force2_py	ground_force2_pz	ground_torque1_x	ground_torque1_y	ground_torque1_z	ground_torque2_x	ground_torque2_y	ground_torque2_z
      1.76000000	    -26.15722288	     55.74794312	      7.73402245	     -0.30873387	      0.00000000	      0.06040721	      0.00000000	      0.00000000	      0.00000000	      0.00000000	      0.00000000	      0.00000000	      0.00000000	     -0.01861634	      0.00000000	      0.00000000	      0.00000000	      0.00000000
      1.76100000	    -29.02987954	     64.13577599	      8.18465915	     -0.31147145	      0.00000000	      0.06292671	      0.00000000	      0.00000000	      0.00000000	      0.00000000	      0.00000000	      0.00000000	      0.00000000	     -0.00198020	      0.00000000	      0.00000000	      0.00000000	      0.00000000
      1.76200000	    -32.07209993	     73.42133214	      8.62010916	     -0.31399958	      0.00000000	      0.06518052	      0.00000000	      0.00000000	      0.00000000	      0.00000000	      0.00000000	      0.00000000	      0.00000000	      0.01742028	      0.00000000	      0.00000000	      0.00000000	      0.00000000
      1.76300000	    -35.26250622	     83.61640175	      9.03260177	     -0.31632521	      0.00000000	      0.06719167	      0.00000000	      0.00000000	      0.00000000	      0.00000000	      0.00000000	      0.00000000	      0.00000000	      0.03977147	      0.00000000	      0.00000000	      0.00000000	      0.00000000
      1.76400000	    -38.57142317	     94.71321939	      9.41346610	     -0.31845647	      0.00000000	      0.06898126	      0.00000000	      0.00000000	      0.00000000	      0.00000000	      0.00000000	      0.00000000	      0.00000000	      0.06522040	      0.00000000	      0.00000000	      0.00000000	      0.00000000
      1.76500000	    -41.96018211	    106.68079933	      9.75331435	     -0.32040133	      0.00000000	      0.07056792	      0.00000000	      0.00000000	      0.00000000	      0.00000000	      0.00000000	      0.00000000	      0.00000000	      0.09386641	      0.00000000	      0.00000000	      0.00000000	      0.00000000
      1.76600000	    -45.38046606	    119.46101381	     10.04233192	     -0.32216687	      0.00000000	      0.07196777	      0.00000000	      0.00000000	      0.00000000	      0.00000000	      0.00000000	      0.00000000	      0.00000000	      0.12575064	      0.00000000	      0.00000000	      0.00000000	      0.00000000
      1.76700000	    -48.77393002	    132.96522186	     10.27073306	     -0.32375902	      0.00000000	      0.07319474	      0.00000000	      0.00000000	      0.00000000	      0.00000000	      0.00000000	      0.00000000	      0.00000000	      0.16083975	      0.00000000	      0.00000000	      0.00000000	      0.00000000
      1.76800000	    -52.07233550	    147.07191518	     10.42933505	     -0.32518265	      0.00000000	      0.07426082	      0.00000000	      0.00000000	      0.00000000	      0.00000000	      0.00000000	      0.00000000	      0.00000000	      0.19901051	      0.00000000	      0.00000000	      0.00000000	      0.00000000
      1.76900000	    -55.19802062	    161.62504121	     10.51018336	     -0.32644140	      0.00000000	      0.07517590	      0.00000000	      0.00000000	      0.00000000	      0.00000000	      0.00000000	      0.00000000	      0.00000000	      0.24003080	      0.00000000	      0.00000000	      0.00000000	      0.00000000
      1.77000000	    -58.06452908	    176.43310477	     10.50723551	     -0.32753748	      0.00000000	      0.07594757	      0.00000000	      0.00000000	      0.00000000	      0.00000000	      0.00000000	      0.00000000	      0.00000000	      0.28353302	      0.00000000	      0.00000000	      0.00000000	      0.00000000
      1.77100000	    -60.57798723	    191.27029030	     10.41712280	     -0.32847139	      0.00000000	      0.07658121	      0.00000000	      0.00000000	      0.00000000	      0.00000000	      0.00000000	      0.00000000	      0.00000000	      0.32901514	      0.00000000	      0.00000000	      0.00000000	      0.00000000
      1.77200000	    -62.64028504	    205.88175251	     10.24003400	     -0.32924204	      0.00000000	      0.07708047	      0.00000000	      0.00000000	      0.00000000	      0.00000000	      0.00000000	      0.00000000	      0.00000000	      0.37589016	      0.00000000	      0.00000000	      0.00000000	      0.00000000
      1.77300000	    -64.15504281	    219.99625667	      9.98075967	     -0.32984767	      0.00000000	      0.07744812	      0.00000000	      0.00000000	      0.00000000	      0.00000000	      0.00000000	      0.00000000	      0.00000000	      0.42353888	      0.00000000	      0.00000000	      0.00000000	      0.00000000
      1.77400000	    -65.03743681	    233.34987179	      9.64986149	     -0.33028772	      0.00000000	      0.07768738	      0.00000000	      0.00000000	      0.00000000	      0.00000000	      0.00000000	      0.00000000	      0.00000000	      0.47133251	      0.00000000	      0.00000000	      0.00000000	      0.00000000
      1.77500000	    -65.22843449	    245.72203918	      9.26477332	     -0.33056560	      0.00000000	      0.07780351	      0.00000000	      0.00000000	      0.00000000	      0.00000000	      0.00000000	      0.00000000	      0.00000000	      0.51865160	      0.00000000	      0.00000000	      0.00000000	      0.00000000
      1.77600000	    -64.71108030	    256.97630664	      8.85016702	     -0.33069084	      0.00000000	      0.07780497	      0.00000000	      0.00000000	      0.00000000	      0.00000000	      0.00000000	      0.00000000	      0.00000000	      0.56492139	      0.00000000	      0.00000000	      0.00000000	      0.00000000
      1.77700000	    -63.52196032	    267.08654702	      8.43653981	     -0.33067869	      0.00000000	      0.07770313	      0.00000000	      0.00000000	      0.00000000	      0.00000000	      0.00000000	      0.00000000	      0.00000000	      0.60966185	      0.00000000	      0.00000000	      0.00000000	      0.00000000
      1.77800000	    -61.74998249	    276.13152236	      8.05672710	     -0.33054706	      0.00000000	      0.07751065	      0.00000000	      0.00000000	      0.00000000	      0.00000000	      0.00000000	      0.00000000	      0.00000000	      0.65256952	      0.00000000	      0.00000000	      0.00000000	      0.00000000
      1.77900000	    -59.52154419	    284.26026915	      7.74154175	     -0.33031300	      0.00000000	      0.07723997	      0.00000000	      0.00000000	      0.00000000	      0.00000000	      0.00000000	      0.00000000	      0.00000000	      0.69361570	      0.00000000	      0.00000000	      0.00000000	      0.00000000
      1.78000000	    -56.98024720	    291.64824455	      7.51616164	     -0.32999039	      0.00000000	      0.07690259	      0.00000000	      0.00000000	      0.00000000	      0.00000000	      0.00000000	      0.00000000	      0.00000000	      0.73308157	      0.00000000	      0.00000000	      0.00000000	      0.00000000
      1.78100000	    -54.27010115	    298.46286216	      7.39796636	     -0.32958911	      0.00000000	      0.07650890	      0.00000000	      0.00000000	      0.00000000	      0.00000000	      0.00000000	      0.00000000	      0.00000000	      0.77149114	      0.00000000	      0.00000000	      0.00000000	      0.00000000
      1.78200000	    -51.52505753	    304.84409629	      7.39571579	     -0.32911508	      0.00000000	      0.07606807	      0.00000000	      0.00000000	      0.00000000	      0.00000000	      0.00000000	      0.00000000	      0.00000000	      0.80949293	      0.00000000	      0.00000000	      0.00000000	      0.00000000
      1.78300000	    -48.86347629	    310.89683930	      7.50979631	     -0.32857060	      0.00000000	      0.07558774	      0.00000000	      0.00000000	      0.00000000	      0.00000000	      0.00000000	      0.00000000	      0.00000000	      0.84774643	      0.00000000	      0.00000000	      0.00000000	      0.00000000
      1.78400000	    -46.38571167	    316.69046665	      7.73328390	     -0.32795492	      0.00000000	      0.07507398	      0.00000000	      0.00000000	      0.00000000	      0.00000000	      0.00000000	      0.00000000	      0.00000000	      0.88682359	      0.00000000	      0.00000000	      0.00000000	      0.00000000
      1.78500000	    -44.17369996	    322.26282444	      8.05356121	     -0.32726518	      0.00000000	      0.07453141	      0.00000000	      0.00000000	      0.00000000	      0.00000000	      0.00000000	      0.00000000	      0.00000000	      0.92712000	      0.00000000	      0.00000000	      0.00000000	      0.00000000
      1.78600000	    -42.29185597	    327.62733194	      8.45425831	     -0.32649740	      0.00000000	      0.07396344	      0.00000000	      0.00000000	      0.00000000	      0.00000000	      0.00000000	      0.00000000	      0.00000000	      0.96878111	      0.00000000	      0.00000000	      0.00000000	      0.00000000
      1.78700000	    -40.78877887	    332.78219485	      8.91732346	     -0.32564758	      0.00000000	      0.07337271	      0.00000000	      0.00000000	      0.00000000	      0.00000000	      0.00000000	      0.00000000	      0.00000000	      1.01165433	      0.00000000	      0.00000000	      0.00000000	      0.00000000
      1.78800000	    -39.69939103	    337.72013606	      9.42498886	     -0.32471272	      0.00000000	      0.07276145	      0.00000000	      0.00000000	      0.00000000	      0.00000000	      0.00000000	      0.00000000	      0.00000000	      1.05526748	      0.00000000	      0.00000000	      0.00000000	      0.00000000
      1.78900000	    -39.04714720	    342.43659999	      9.96141432	     -0.32369158	      0.00000000	      0.07213175	      0.00000000	      0.00000000	      0.00000000	      0.00000000	      0.00000000	      0.00000000	      0.00000000	      1.09881944	      0.00000000	      0.00000000	      0.00000000	      0.00000000
